<?xml version="1.0" encoding="utf-8"?>
<!-- Generator: Adobe Illustrator 19.0.0, SVG Export Plug-In . SVG Version: 6.00 Build 0)  -->
<svg version="1.1" id="Layer_1" xmlns="http://www.w3.org/2000/svg" xmlns:xlink="http://www.w3.org/1999/xlink" x="0px" y="0px"
	 viewBox="0 0 300 375" style="enable-background:new 0 0 300 375;" xml:space="preserve">
<style type="text/css">
	.st0{clip-path:url(#XMLID_204_);fill:none;}
	.st1{opacity:0.3;clip-path:url(#XMLID_204_);fill:url(#XMLID_205_);}
	.st2{opacity:0.45;clip-path:url(#XMLID_204_);fill:url(#XMLID_206_);}
	.st3{opacity:0.6;clip-path:url(#XMLID_204_);fill:url(#XMLID_207_);}
	.st4{opacity:0.6;clip-path:url(#XMLID_204_);fill:url(#XMLID_208_);}
	.st5{opacity:0.4;clip-path:url(#XMLID_204_);}
	.st6{fill:#FFFFFF;}
	.st7{opacity:0.15;clip-path:url(#XMLID_204_);fill:#FFFFFF;}
	.st8{opacity:0.6;clip-path:url(#XMLID_204_);}
	.st9{fill:none;stroke:#FFFFFF;stroke-width:0.49;stroke-miterlimit:10;}
	.st10{clip-path:url(#XMLID_204_);}
	.st11{opacity:0.6;fill:#FFFFFF;}
	.st12{opacity:0.6;fill:none;stroke:#FFFFFF;stroke-width:0.49;stroke-miterlimit:10;}
	.st13{opacity:0.6;clip-path:url(#XMLID_204_);fill:#FFFFFF;}
	.st14{opacity:0.6;clip-path:url(#XMLID_204_);fill:none;stroke:#FFFFFF;stroke-width:0.49;stroke-miterlimit:10;}
</style>
<g>
	<defs>
		<rect id="XMLID_20_" y="0.3" width="300" height="375"/>
	</defs>
	<linearGradient id="XMLID_203_" gradientUnits="userSpaceOnUse" x1="150" y1="375.3362" x2="150" y2="0.3362">
		<stop  offset="0" style="stop-color:#097FF5"/>
		<stop  offset="0.2799" style="stop-color:#1687F7"/>
		<stop  offset="0.7979" style="stop-color:#399AFD"/>
		<stop  offset="1" style="stop-color:#48A3FF"/>
	</linearGradient>
	<use xlink:href="#XMLID_20_"  style="overflow:visible;fill:url(#XMLID_203_);"/>
	<clipPath id="XMLID_204_">
		<use xlink:href="#XMLID_20_"  style="overflow:visible;"/>
	</clipPath>
	<rect id="XMLID_201_" y="0.3" class="st0" width="300" height="375"/>
	<linearGradient id="XMLID_205_" gradientUnits="userSpaceOnUse" x1="137.4376" y1="290.3225" x2="149.1104" y2="423.7422">
		<stop  offset="0" style="stop-color:#2390FF"/>
		<stop  offset="0.9146" style="stop-color:#2390FF;stop-opacity:0"/>
	</linearGradient>
	<path id="XMLID_200_" class="st1" d="M-52.6,334c13.8-13.7,36.6-22.4,57.8-18.3c14.6,2.9,27.6,9.7,41,15.4
		c13.4,5.8,28,10.7,42.9,9.3c32.6-3.1,53.2-34.3,85.5-39.2c34.4-5.2,70.2,21.3,102.2,9.6c23.2-8.4,34.6-34.3,59.5-37.9v134.4H-52.6
		V334z"/>
	<linearGradient id="XMLID_206_" gradientUnits="userSpaceOnUse" x1="144.3716" y1="429.4593" x2="144.3716" y2="316.6176">
		<stop  offset="8.544150e-002" style="stop-color:#2390FF;stop-opacity:0"/>
		<stop  offset="1" style="stop-color:#2390FF"/>
	</linearGradient>
	<path id="XMLID_199_" class="st2" d="M-22.3,344.1c17.9,3,27.8-0.1,42.7-8.3c10-5.5,18.4-13.4,30.3-15.7c14.5-2.9,29.6,3.4,40.8,11
		c11.2,7.7,20.7,17.1,33.9,22.6c27.4,11.5,62.4,2.9,87-11.8c10.7-6.4,20.3-13.8,31.9-19.1c11.6-5.3,26.1-8.2,38.7-4.6
		c10.4,3,18.1,9.9,28,13.7v97.5H-22.3V344.1z"/>
	
		<linearGradient id="XMLID_207_" gradientUnits="userSpaceOnUse" x1="9610.791" y1="-3923.4304" x2="9610.791" y2="-4068.4763" gradientTransform="matrix(-1 0 0 -1 9755.1611 -3965.2375)">
		<stop  offset="4.013720e-002" style="stop-color:#FFFFFF;stop-opacity:0"/>
		<stop  offset="0.9671" style="stop-color:#FFFFFF;stop-opacity:0.9795"/>
		<stop  offset="0.9865" style="stop-color:#FFFFFF"/>
	</linearGradient>
	<path id="XMLID_198_" class="st3" d="M311.1,48.8c-17.9-6-27.8,0.2-42.7,16.5c-10,10.9-18.4,26.5-30.3,31.3
		c-14.5,5.8-29.6-6.7-40.8-21.9c-11.2-15.2-20.7-33.9-33.9-44.9c-27.4-22.9-62.4-5.7-87,23.4C65.6,65.7,56,80.4,44.3,90.9
		c-11.6,10.5-26.1,16.3-38.7,9.1c-10.4-5.9-18.1-19.7-28-27.3V-41.8h333.4V48.8z"/>
	
		<linearGradient id="XMLID_208_" gradientUnits="userSpaceOnUse" x1="185.8188" y1="-3956.6614" x2="185.8188" y2="-4042.2163" gradientTransform="matrix(1 0 0 -1 0 -3965.2375)">
		<stop  offset="0" style="stop-color:#FFFFFF;stop-opacity:0"/>
		<stop  offset="0.9662" style="stop-color:#FFFFFF;stop-opacity:0.9795"/>
		<stop  offset="0.9865" style="stop-color:#FFFFFF"/>
	</linearGradient>
	<path id="XMLID_197_" class="st4" d="M-3.2,34.8c20.3-4.6,31.6,0.1,48.4,12.8C56.6,56,66.2,68.1,79.7,71.8
		c16.5,4.5,33.5-5.2,46.3-17c12.7-11.8,23.5-26.3,38.4-34.8c31-17.7,70.7-4.4,98.7,18.1c12.1,9.8,23,21.2,36.2,29.3
		c13.2,8.1,29.5,12.6,43.9,7.1c11.8-4.6,20.5-15.2,31.7-21.2V-8.6h-378V34.8z"/>
	<g class="st5">
		<ellipse id="XMLID_196_" class="st6" cx="46.3" cy="73.5" rx="2.2" ry="2.3"/>
		<ellipse id="XMLID_195_" class="st6" cx="208.6" cy="291.5" rx="2.2" ry="2.3"/>
		<ellipse id="XMLID_194_" class="st6" cx="61.4" cy="351.9" rx="1.1" ry="1.2"/>
		<ellipse id="XMLID_193_" class="st6" cx="250.6" cy="288.7" rx="2.4" ry="2.5"/>
		<ellipse id="XMLID_192_" class="st6" cx="72.3" cy="333.5" rx="2.8" ry="2.8"/>
		<ellipse id="XMLID_191_" class="st6" cx="50" cy="58.1" rx="1.3" ry="1.4"/>
		<ellipse id="XMLID_190_" class="st6" cx="243.9" cy="308.9" rx="1.3" ry="1.4"/>
		<ellipse id="XMLID_189_" class="st6" cx="20.5" cy="66.4" rx="0.8" ry="0.8"/>
		<ellipse id="XMLID_188_" class="st6" cx="272.7" cy="216.3" rx="0.8" ry="0.8"/>
		<ellipse id="XMLID_187_" class="st6" cx="99.2" cy="310.9" rx="0.8" ry="0.8"/>
		<ellipse id="XMLID_186_" class="st6" cx="26.1" cy="296.5" rx="1.6" ry="1.7"/>
		<ellipse id="XMLID_185_" class="st6" cx="252.6" cy="238.8" rx="0.8" ry="0.8"/>
	</g>
	<path class="st7" d="M298.6,415.7h1.4v-451h-1.4v25.9H270v-25.9h-1.4v25.9h-28.6v-25.9h-1.4v25.9h-28.6v-25.9h-1.4v25.9h-28.6
		v-25.9h-1.4v25.9h-28.6v-25.9h-1.4v25.9h-28.6v-25.9h-1.4v25.9H90.3v-25.9h-1.4v25.9H60.3v-25.9H59v25.9H30.4v-25.9H29v25.9H0.4
		v-25.9h-1.4v451h1.4v-25.9H29v25.9h1.4v-25.9H59v25.9h1.4v-25.9h28.6v25.9h1.4v-25.9h28.6v25.9h1.4v-25.9h28.6v25.9h1.4v-25.9h28.6
		v25.9h1.4v-25.9h28.6v25.9h1.4v-25.9h28.6v25.9h1.4v-25.9h28.6v25.9h1.4v-25.9h28.6V415.7z M29,388.4H0.4v-29.2H29V388.4z
		 M59,388.4H30.4v-29.2H59V388.4z M88.9,388.4H60.3v-29.2h28.6V388.4z M118.9,388.4H90.3v-29.2h28.6V388.4z M148.9,388.4h-28.6
		v-29.2h28.6V388.4z M178.8,388.4h-28.6v-29.2h28.6V388.4z M208.8,388.4h-28.6v-29.2h28.6V388.4z M238.7,388.4h-28.6v-29.2h28.6
		V388.4z M268.7,388.4h-28.6v-29.2h28.6V388.4z M298.6,388.4H270v-29.2h28.6V388.4z M29,357.8H0.4v-29.2H29V357.8z M59,357.8H30.4
		v-29.2H59V357.8z M88.9,357.8H60.3v-29.2h28.6V357.8z M118.9,357.8H90.3v-29.2h28.6V357.8z M148.9,357.8h-28.6v-29.2h28.6V357.8z
		 M178.8,357.8h-28.6v-29.2h28.6V357.8z M208.8,357.8h-28.6v-29.2h28.6V357.8z M238.7,357.8h-28.6v-29.2h28.6V357.8z M268.7,357.8
		h-28.6v-29.2h28.6V357.8z M298.6,357.8H270v-29.2h28.6V357.8z M29,327.2H0.4V298H29V327.2z M59,327.2H30.4V298H59V327.2z
		 M88.9,327.2H60.3V298h28.6V327.2z M118.9,327.2H90.3V298h28.6V327.2z M148.9,327.2h-28.6V298h28.6V327.2z M178.8,327.2h-28.6V298
		h28.6V327.2z M208.8,327.2h-28.6V298h28.6V327.2z M238.7,327.2h-28.6V298h28.6V327.2z M268.7,327.2h-28.6V298h28.6V327.2z
		 M298.6,327.2H270V298h28.6V327.2z M29,296.6H0.4v-29.2H29V296.6z M59,296.6H30.4v-29.2H59V296.6z M88.9,296.6H60.3v-29.2h28.6
		V296.6z M118.9,296.6H90.3v-29.2h28.6V296.6z M148.9,296.6h-28.6v-29.2h28.6V296.6z M178.8,296.6h-28.6v-29.2h28.6V296.6z
		 M208.8,296.6h-28.6v-29.2h28.6V296.6z M238.7,296.6h-28.6v-29.2h28.6V296.6z M268.7,296.6h-28.6v-29.2h28.6V296.6z M298.6,296.6
		H270v-29.2h28.6V296.6z M29,266H0.4v-29.2H29V266z M59,266H30.4v-29.2H59V266z M88.9,266H60.3v-29.2h28.6V266z M118.9,266H90.3
		v-29.2h28.6V266z M148.9,266h-28.6v-29.2h28.6V266z M178.8,266h-28.6v-29.2h28.6V266z M208.8,266h-28.6v-29.2h28.6V266z M238.7,266
		h-28.6v-29.2h28.6V266z M268.7,266h-28.6v-29.2h28.6V266z M298.6,266H270v-29.2h28.6V266z M29,235.4H0.4v-29.2H29V235.4z M59,235.4
		H30.4v-29.2H59V235.4z M88.9,235.4H60.3v-29.2h28.6V235.4z M118.9,235.4H90.3v-29.2h28.6V235.4z M148.9,235.4h-28.6v-29.2h28.6
		V235.4z M178.8,235.4h-28.6v-29.2h28.6V235.4z M208.8,235.4h-28.6v-29.2h28.6V235.4z M238.7,235.4h-28.6v-29.2h28.6V235.4z
		 M268.7,235.4h-28.6v-29.2h28.6V235.4z M298.6,235.4H270v-29.2h28.6V235.4z M29,204.8H0.4v-29.2H29V204.8z M59,204.8H30.4v-29.2H59
		V204.8z M88.9,204.8H60.3v-29.2h28.6V204.8z M118.9,204.8H90.3v-29.2h28.6V204.8z M148.9,204.8h-28.6v-29.2h28.6V204.8z
		 M178.8,204.8h-28.6v-29.2h28.6V204.8z M208.8,204.8h-28.6v-29.2h28.6V204.8z M238.7,204.8h-28.6v-29.2h28.6V204.8z M268.7,204.8
		h-28.6v-29.2h28.6V204.8z M298.6,204.8H270v-29.2h28.6V204.8z M29,174.2H0.4V145H29V174.2z M59,174.2H30.4V145H59V174.2z
		 M88.9,174.2H60.3V145h28.6V174.2z M118.9,174.2H90.3V145h28.6V174.2z M148.9,174.2h-28.6V145h28.6V174.2z M178.8,174.2h-28.6V145
		h28.6V174.2z M208.8,174.2h-28.6V145h28.6V174.2z M238.7,174.2h-28.6V145h28.6V174.2z M268.7,174.2h-28.6V145h28.6V174.2z
		 M298.6,174.2H270V145h28.6V174.2z M29,143.6H0.4v-29.2H29V143.6z M59,143.6H30.4v-29.2H59V143.6z M88.9,143.6H60.3v-29.2h28.6
		V143.6z M118.9,143.6H90.3v-29.2h28.6V143.6z M148.9,143.6h-28.6v-29.2h28.6V143.6z M178.8,143.6h-28.6v-29.2h28.6V143.6z
		 M208.8,143.6h-28.6v-29.2h28.6V143.6z M238.7,143.6h-28.6v-29.2h28.6V143.6z M268.7,143.6h-28.6v-29.2h28.6V143.6z M298.6,143.6
		H270v-29.2h28.6V143.6z M29,113H0.4V83.8H29V113z M59,113H30.4V83.8H59V113z M88.9,113H60.3V83.8h28.6V113z M118.9,113H90.3V83.8
		h28.6V113z M148.9,113h-28.6V83.8h28.6V113z M178.8,113h-28.6V83.8h28.6V113z M208.8,113h-28.6V83.8h28.6V113z M238.7,113h-28.6
		V83.8h28.6V113z M268.7,113h-28.6V83.8h28.6V113z M298.6,113H270V83.8h28.6V113z M29,82.4H0.4V53.2H29V82.4z M59,82.4H30.4V53.2H59
		V82.4z M88.9,82.4H60.3V53.2h28.6V82.4z M118.9,82.4H90.3V53.2h28.6V82.4z M148.9,82.4h-28.6V53.2h28.6V82.4z M178.8,82.4h-28.6
		V53.2h28.6V82.4z M208.8,82.4h-28.6V53.2h28.6V82.4z M238.7,82.4h-28.6V53.2h28.6V82.4z M268.7,82.4h-28.6V53.2h28.6V82.4z
		 M298.6,82.4H270V53.2h28.6V82.4z M29,51.8H0.4V22.6H29V51.8z M59,51.8H30.4V22.6H59V51.8z M88.9,51.8H60.3V22.6h28.6V51.8z
		 M118.9,51.8H90.3V22.6h28.6V51.8z M148.9,51.8h-28.6V22.6h28.6V51.8z M178.8,51.8h-28.6V22.6h28.6V51.8z M208.8,51.8h-28.6V22.6
		h28.6V51.8z M238.7,51.8h-28.6V22.6h28.6V51.8z M268.7,51.8h-28.6V22.6h28.6V51.8z M298.6,51.8H270V22.6h28.6V51.8z M29,21.2H0.4
		V-8H29V21.2z M59,21.2H30.4V-8H59V21.2z M88.9,21.2H60.3V-8h28.6V21.2z M118.9,21.2H90.3V-8h28.6V21.2z M148.9,21.2h-28.6V-8h28.6
		V21.2z M178.8,21.2h-28.6V-8h28.6V21.2z M208.8,21.2h-28.6V-8h28.6V21.2z M238.7,21.2h-28.6V-8h28.6V21.2z M268.7,21.2h-28.6V-8
		h28.6V21.2z M298.6,21.2H270V-8h28.6V21.2z"/>
	<g id="XMLID_35_" class="st8">
		<g id="XMLID_235_">
			<line id="XMLID_240_" class="st9" x1="-42.9" y1="391" x2="82.1" y2="263.4"/>
			<g id="XMLID_238_">
				<circle id="XMLID_239_" class="st6" cx="-42.8" cy="390.9" r="2.9"/>
			</g>
			<g id="XMLID_236_">
				<circle id="XMLID_237_" class="st6" cx="82" cy="263.5" r="2.9"/>
			</g>
		</g>
	</g>
	<g id="XMLID_34_" class="st8">
		<g id="XMLID_228_">
			<line id="XMLID_233_" class="st9" x1="249.2" y1="128.8" x2="350.8" y2="25.1"/>
			<g id="XMLID_231_">
				<circle id="XMLID_232_" class="st6" cx="249.3" cy="128.7" r="2.9"/>
			</g>
			<g id="XMLID_229_">
				<circle id="XMLID_230_" class="st6" cx="350.7" cy="25.2" r="2.9"/>
			</g>
		</g>
	</g>
	<g id="XMLID_33_" class="st8">
		<g id="XMLID_221_">
			<line id="XMLID_226_" class="st9" x1="219" y1="388.2" x2="320.5" y2="284.5"/>
			<g id="XMLID_224_">
				<circle id="XMLID_225_" class="st6" cx="219.1" cy="388.1" r="2.9"/>
			</g>
			<g id="XMLID_222_">
				<circle id="XMLID_223_" class="st6" cx="320.4" cy="284.6" r="2.9"/>
			</g>
		</g>
	</g>
	<g id="XMLID_32_" class="st8">
		<g id="XMLID_214_">
			<line id="XMLID_219_" class="st9" x1="236.2" y1="402.6" x2="337.7" y2="298.9"/>
			<g id="XMLID_217_">
				<circle id="XMLID_218_" class="st6" cx="236.3" cy="402.5" r="2.9"/>
			</g>
			<g id="XMLID_215_">
				<circle id="XMLID_216_" class="st6" cx="337.6" cy="299" r="2.9"/>
			</g>
		</g>
	</g>
	<g id="XMLID_31_" class="st8">
		<g id="XMLID_249_">
			<line id="XMLID_254_" class="st9" x1="76.2" y1="119.7" x2="232.3" y2="-39.8"/>
			<g id="XMLID_252_">
				<circle id="XMLID_253_" class="st6" cx="76.3" cy="119.5" r="2.9"/>
			</g>
			<g id="XMLID_250_">
				<circle id="XMLID_251_" class="st6" cx="232.2" cy="-39.7" r="2.9"/>
			</g>
		</g>
	</g>
	<g id="XMLID_30_" class="st8">
		<g id="XMLID_256_">
			<line id="XMLID_261_" class="st9" x1="146.4" y1="68" x2="302.5" y2="-91.4"/>
			<g id="XMLID_259_">
				<circle id="XMLID_260_" class="st6" cx="146.5" cy="67.9" r="2.9"/>
			</g>
			<g id="XMLID_257_">
				<circle id="XMLID_258_" class="st6" cx="302.4" cy="-91.3" r="2.9"/>
			</g>
		</g>
	</g>
	<g id="XMLID_29_" class="st8">
		<g id="XMLID_263_">
			<line id="XMLID_268_" class="st9" x1="-21.4" y1="404" x2="69.2" y2="311.5"/>
			<g id="XMLID_266_">
				<circle id="XMLID_267_" class="st6" cx="-21.3" cy="403.9" r="2.9"/>
			</g>
			<g id="XMLID_264_">
				<circle id="XMLID_265_" class="st6" cx="69" cy="311.7" r="2.9"/>
			</g>
		</g>
	</g>
	<g class="st10">
		<ellipse id="XMLID_28_" class="st11" cx="224.4" cy="309.5" rx="6.7" ry="6.9"/>
		<ellipse id="XMLID_27_" class="st12" cx="224.4" cy="309.5" rx="13.3" ry="13.5"/>
	</g>
	<g class="st10">
		<ellipse id="XMLID_26_" class="st11" cx="30.1" cy="102.5" rx="6.7" ry="6.9"/>
		<ellipse id="XMLID_25_" class="st12" cx="30.1" cy="102.5" rx="13.3" ry="13.5"/>
	</g>
	<path id="XMLID_24_" class="st13" d="M243.3,31.2c-4.7,2.6-10.5,0.8-13-4s-0.8-10.7,3.9-13.3c4.7-2.6,10.5-0.8,13,4
		S247.9,28.6,243.3,31.2z"/>
	<ellipse id="XMLID_23_" class="st14" cx="238.7" cy="22.6" rx="14.5" ry="14.8"/>
</g>
</svg>
